<mxfile host="app.diagrams.net" modified="2024-05-27T14:15:49.004Z" agent="Mozilla/5.0 (Windows NT 10.0; Win64; x64) AppleWebKit/537.36 (KHTML, like Gecko) Chrome/125.0.0.0 Safari/537.36" etag="9xDoyW8jsNR5kX0IB3gH" version="24.4.9" type="device">
  <diagram name="Seite-1" id="S1JQ3c73T4_kcqICVWHs">
    <mxGraphModel dx="683" dy="390" grid="1" gridSize="10" guides="1" tooltips="1" connect="1" arrows="1" fold="1" page="1" pageScale="1" pageWidth="120" pageHeight="12" math="0" shadow="0">
      <root>
        <mxCell id="0" />
        <mxCell id="1" parent="0" />
        <mxCell id="NdWlYIsHsc_FSeNWLENN-2" value="Fahrer&lt;br&gt;&lt;div&gt;&lt;br&gt;&lt;/div&gt;&lt;div&gt;1&lt;/div&gt;" style="rounded=0;whiteSpace=wrap;html=1;" parent="1" vertex="1">
          <mxGeometry x="10" y="10" width="100" height="100" as="geometry" />
        </mxCell>
        <mxCell id="NdWlYIsHsc_FSeNWLENN-3" value="Reiseleiter&lt;div&gt;&lt;br&gt;&lt;/div&gt;&lt;div&gt;2&lt;/div&gt;" style="rounded=0;whiteSpace=wrap;html=1;" parent="1" vertex="1">
          <mxGeometry x="130" y="10" width="100" height="100" as="geometry" />
        </mxCell>
        <mxCell id="NdWlYIsHsc_FSeNWLENN-8" value="3" style="rounded=0;whiteSpace=wrap;html=1;" parent="1" vertex="1">
          <mxGeometry x="250" y="10" width="100" height="100" as="geometry" />
        </mxCell>
        <mxCell id="NdWlYIsHsc_FSeNWLENN-9" value="4" style="rounded=0;whiteSpace=wrap;html=1;" parent="1" vertex="1">
          <mxGeometry x="10" y="130" width="100" height="100" as="geometry" />
        </mxCell>
        <mxCell id="NdWlYIsHsc_FSeNWLENN-10" value="5" style="rounded=0;whiteSpace=wrap;html=1;" parent="1" vertex="1">
          <mxGeometry x="130" y="130" width="100" height="100" as="geometry" />
        </mxCell>
        <mxCell id="NdWlYIsHsc_FSeNWLENN-11" value="6" style="rounded=0;whiteSpace=wrap;html=1;" parent="1" vertex="1">
          <mxGeometry x="250" y="130" width="100" height="100" as="geometry" />
        </mxCell>
        <mxCell id="NdWlYIsHsc_FSeNWLENN-12" value="7" style="rounded=0;whiteSpace=wrap;html=1;" parent="1" vertex="1">
          <mxGeometry x="10" y="250" width="100" height="100" as="geometry" />
        </mxCell>
        <mxCell id="NdWlYIsHsc_FSeNWLENN-13" value="8" style="rounded=0;whiteSpace=wrap;html=1;" parent="1" vertex="1">
          <mxGeometry x="130" y="250" width="100" height="100" as="geometry" />
        </mxCell>
        <mxCell id="NdWlYIsHsc_FSeNWLENN-14" value="9" style="rounded=0;whiteSpace=wrap;html=1;" parent="1" vertex="1">
          <mxGeometry x="250" y="250" width="100" height="100" as="geometry" />
        </mxCell>
      </root>
    </mxGraphModel>
  </diagram>
</mxfile>
